<svg id="anchorGrabberTool@2x" data-name="anchorGrabberTool@2x" xmlns="http://www.w3.org/2000/svg" viewBox="0 0 44 36" width="44">
 <defs>
    <style>
      .fill {
        opacity: 0.65;
      }

      
    </style>
 </defs>
<title>anchorGrabberTool@2x</title><path class="fill" d="M8.11,26.44a6.21,6.21,0,0,1-3.64-1.18,4.74,4.74,0,1,0,8.39,3,4.71,4.71,0,0,0-1.12-3A6.18,6.18,0,0,1,8.11,26.44Z"/><path class="fill" d="M8.11,7.32a4.76,4.76,0,1,1-4.76,4.76A4.76,4.76,0,0,1,8.11,7.32"/><path class="fill" d="M8.11,18.33a6.27,6.27,0,0,1-3.64-1.17,4.68,4.68,0,0,0-1.12,3,4.76,4.76,0,1,0,9.51,0,4.68,4.68,0,0,0-1.12-3A6.24,6.24,0,0,1,8.11,18.33Z"/><polyline class="fill" points="11.3 3.21 42.46 11.93 30.93 18.42 27.13 31.34 11.3 3.21"/></svg>
